<svg xmlns="http://www.w3.org/2000/svg" width="256" height="256" viewBox="0 0 100 100"><rect width="100" height="100" rx="0" fill="#b5384a"></rect><path fill="#f3e8e8" d="M25.68 65.07L11.71 65.07L11.71 63.05L15.15 62.53Q15.97 62.41 16.27 61.93Q16.57 61.46 16.57 60.38L16.57 60.38L16.57 37.25L14.20 37.25Q12.61 37.25 11.54 37.51Q10.46 37.77 9.69 38.52Q8.91 39.27 8.27 40.60Q7.62 41.94 6.89 44.09L6.89 44.09L4.66 43.53L6.29 34.93L31.14 34.93L32.69 43.53L30.37 44.09Q29.68 41.94 29.06 40.60Q28.44 39.27 27.68 38.52Q26.93 37.77 25.86 37.51Q24.78 37.25 23.23 37.25L23.23 37.25L20.82 37.25L20.82 60.56Q20.82 61.59 21.10 62.00Q21.38 62.41 22.29 62.53L22.29 62.53L25.68 63.05L25.68 65.07ZM49.03 65.07L37.16 65.07L37.16 63.05L39.66 62.66Q40.48 62.53 40.73 62.10Q40.99 61.67 40.99 60.47L40.99 60.47L40.99 39.36Q40.99 38.28 40.71 37.87Q40.43 37.47 39.57 37.34L39.57 37.34L37.16 36.95L37.16 34.93L49.03 34.93L49.03 36.95L46.54 37.34Q45.76 37.47 45.51 37.90Q45.25 38.33 45.25 39.53L45.25 39.53L45.25 48.26L59.87 48.26L59.87 39.36Q59.87 38.28 59.59 37.87Q59.31 37.47 58.45 37.34L58.45 37.34L56.08 36.95L56.08 34.93L67.91 34.93L67.91 36.95L65.46 37.34Q64.64 37.47 64.38 37.90Q64.13 38.33 64.13 39.53L64.13 39.53L64.13 60.64Q64.13 61.72 64.41 62.13Q64.68 62.53 65.54 62.66L65.54 62.66L67.91 63.05L67.91 65.07L56.08 65.07L56.08 63.05L58.54 62.66Q59.35 62.53 59.61 62.10Q59.87 61.67 59.87 60.47L59.87 60.47L59.87 50.92L45.25 50.92L45.25 60.64Q45.25 61.72 45.53 62.13Q45.81 62.53 46.62 62.66L46.62 62.66L49.03 63.05L49.03 65.07ZM94.27 65.07L73.24 65.07L73.24 63.05L75.74 62.66Q76.55 62.53 76.81 62.10Q77.07 61.67 77.07 60.47L77.07 60.47L77.07 39.36Q77.07 38.28 76.79 37.87Q76.51 37.47 75.65 37.34L75.65 37.34L73.24 36.95L73.24 34.93L85.54 34.93L85.54 36.95L82.70 37.38Q81.88 37.51 81.61 37.87Q81.33 38.24 81.33 39.36L81.33 39.36L81.33 62.75L86.18 62.75Q87.65 62.75 88.66 62.47Q89.67 62.19 90.42 61.44Q91.17 60.69 91.80 59.35Q92.42 58.02 93.06 55.91L93.06 55.91L95.34 55.91L94.27 65.07Z"></path></svg>